<?xml version="1.0" standalone="no"?>
<!DOCTYPE svg PUBLIC "-//W3C//DTD SVG 20010904//EN"
 "http://www.w3.org/TR/2001/REC-SVG-20010904/DTD/svg10.dtd">
<svg version="1.0" xmlns="http://www.w3.org/2000/svg"
 width="1025.000000pt" height="1025.000000pt" viewBox="0 0 1025.000000 1025.000000"
 preserveAspectRatio="xMidYMid meet">
<metadata>
Created by potrace 1.14, written by Peter Selinger 2001-2017
</metadata>
<g transform="translate(0.000000,1025.000000) scale(0.100000,-0.100000)"
fill="#000000" stroke="none">
<path d="M1864 10224 c-217 -29 -497 -118 -693 -219 -336 -174 -641 -455 -848
-783 -163 -259 -276 -590 -313 -917 -8 -72 -10 -974 -8 -3250 l4 -3150 22
-110 c80 -405 232 -729 480 -1026 324 -387 764 -640 1292 -741 l115 -22 3125
-4 c2190 -2 3159 0 3240 8 741 70 1397 517 1730 1180 75 149 125 284 165 445
69 273 65 44 65 3481 0 2138 -3 3135 -11 3202 -41 378 -189 752 -417 1059 -83
111 -271 304 -382 393 -308 245 -680 404 -1068 455 -163 22 -6340 21 -6498 -1z
m2630 -2769 c45 -21 1883 -1864 1891 -1895 3 -14 4 -384 3 -822 l-3 -798 -555
-556 c-305 -305 -567 -562 -582 -570 -40 -21 -1572 -21 -1621 0 -19 8 -420
403 -964 947 -1017 1020 -961 957 -933 1046 10 31 256 282 1308 1335 713 714
1310 1304 1327 1313 39 19 89 19 129 0z m3201 -2826 c318 -39 584 -227 726
-514 73 -148 92 -229 92 -405 1 -160 -11 -227 -63 -357 -178 -444 -683 -681
-1143 -537 -319 101 -564 371 -631 696 -21 100 -21 286 0 386 79 387 405 683
804 732 96 11 116 11 215 -1z"/>
<path d="M4281 5679 c-81 -14 -228 -66 -298 -105 -327 -182 -520 -560 -473
-924 52 -405 343 -720 740 -802 76 -16 120 -19 220 -15 243 10 430 89 603 256
133 128 212 258 258 427 69 251 24 537 -118 751 -51 78 -164 196 -239 249 -81
58 -212 119 -309 145 -92 24 -296 34 -384 18z"/>
</g>
</svg>
