<?xml version="1.0" standalone="no"?>
<!DOCTYPE svg PUBLIC "-//W3C//DTD SVG 20010904//EN"
 "http://www.w3.org/TR/2001/REC-SVG-20010904/DTD/svg10.dtd">
<svg version="1.0" xmlns="http://www.w3.org/2000/svg"
 width="513.000000pt" height="513.000000pt" viewBox="0 0 513.000000 513.000000"
 preserveAspectRatio="xMidYMid meet">
<metadata>
Created by potrace 1.14, written by Peter Selinger 2001-2017
</metadata>
<g transform="translate(0.000000,513.000000) scale(0.100000,-0.100000)"
fill="#000000" stroke="none">
<path d="M930 5113 c-472 -75 -835 -437 -905 -900 -13 -83 -15 -335 -15 -1648
0 -984 4 -1576 10 -1620 25 -171 81 -319 174 -459 152 -228 381 -386 658 -453
68 -17 180 -18 1723 -18 l1650 0 96 27 c313 86 553 284 695 573 60 123 90 226
104 360 14 129 13 3068 -1 3192 -31 283 -173 543 -392 718 -98 79 -285 174
-407 207 l-85 23 -1640 1 c-902 1 -1651 0 -1665 -3z m1803 -1851 l477 -477 0
-405 0 -405 -288 -287 -287 -288 -405 0 -405 0 -473 473 c-261 259 -477 481
-482 492 -4 11 -3 31 2 45 12 33 1285 1308 1322 1325 16 7 36 10 46 8 9 -2
231 -219 493 -481z m1153 -943 c309 -56 476 -400 332 -684 -27 -52 -122 -151
-176 -182 -97 -57 -239 -78 -351 -52 -121 28 -251 132 -308 246 -92 186 -54
404 96 546 115 110 256 154 407 126z"/>
<path d="M2155 2840 c-233 -37 -389 -225 -387 -465 3 -278 252 -489 527 -445
345 55 505 450 298 733 -95 129 -278 203 -438 177z"/>
</g>
</svg>
