<?xml version="1.0" standalone="no"?>
<!DOCTYPE svg PUBLIC "-//W3C//DTD SVG 20010904//EN"
 "http://www.w3.org/TR/2001/REC-SVG-20010904/DTD/svg10.dtd">
<svg version="1.0" xmlns="http://www.w3.org/2000/svg"
 width="513.000000pt" height="513.000000pt" viewBox="0 0 513.000000 513.000000"
 preserveAspectRatio="xMidYMid meet">
<metadata>
Created by potrace 1.14, written by Peter Selinger 2001-2017
</metadata>
<g transform="translate(0.000000,513.000000) scale(0.100000,-0.100000)"
fill="#000000" stroke="none">
<path d="M10 2560 l0 -2560 2560 0 2560 0 0 2560 0 2560 -2560 0 -2560 0 0
-2560z m2717 707 l473 -472 0 -410 0 -410 -288 -288 -288 -287 -392 0 c-322 0
-398 3 -420 14 -15 8 -233 221 -484 473 -428 428 -458 461 -458 493 0 33 40
75 662 697 581 581 667 663 693 663 26 0 90 -61 502 -473z m1265 -989 c176
-84 268 -230 268 -423 0 -102 -23 -181 -75 -259 -129 -194 -381 -262 -593
-158 -177 86 -284 290 -254 485 15 97 67 200 134 263 108 102 198 136 350 131
86 -3 104 -8 170 -39z"/>
<path d="M2118 2835 c-212 -54 -358 -236 -358 -448 0 -160 73 -301 200 -386
190 -126 425 -105 586 54 246 243 153 654 -175 766 -76 26 -182 32 -253 14z"/>
</g>
</svg>
