<?xml version="1.0" encoding="UTF-8"?>
<svg id="Capa_2" xmlns="http://www.w3.org/2000/svg" viewBox="0 0 490.99 342.85">
  <g id="Capa_1-2" data-name="Capa_1">
    <path d="M342.82,254.36v-110.2c0-2.8-1.11-5.49-3.09-7.47l-66.7-66.7-11.22-11.22L206.04,3c-4-4-10.5-4-14.5,0L3,191.54c-4,4-4,10.5,0,14.5l55.33,55.33c.14.15.27.31.41.45l77.92,77.92c1.98,1.98,4.67,3.09,7.47,3.09h110.2c2.8,0,5.49-1.11,7.47-3.09l77.92-77.92c1.98-1.98,3.09-4.67,3.09-7.47ZM150.66,247.39c-26.7-26.7-26.7-70,0-96.71,26.7-26.7,70-26.7,96.71,0,26.7,26.7,26.7,70,0,96.71-26.7,26.7-70,26.7-96.71,0Z"/>
    <circle cx="422.61" cy="274.21" r="68.38"/>
  </g>
</svg>