<svg width="120" height="85" viewBox="0 0 120 85" fill="none" xmlns="http://www.w3.org/2000/svg">
<g clip-path="url(#clip0_199_1893)">
<path d="M82.4676 61.926V35.4184C82.4676 34.7451 82.2002 34.097 81.722 33.6219L65.6758 17.5757L62.9763 14.8762L49.5636 1.46036C48.6008 0.497589 47.0403 0.497589 46.0744 1.46036L0.723541 46.8143C-0.239227 47.7771 -0.239227 49.3377 0.723541 50.3036L14.0355 63.6156C14.067 63.6533 14.0985 63.6911 14.1331 63.7257L32.8788 82.4714C33.3539 82.9465 34.002 83.217 34.6753 83.217H61.1829C61.8562 83.217 62.5043 82.9496 62.9794 82.4714L81.7251 63.7257C82.2002 63.2506 82.4708 62.6025 82.4708 61.9292L82.4676 61.926ZM36.2422 60.249C29.8174 53.8243 29.8174 43.41 36.2422 36.9853C42.6669 30.5605 53.0812 30.5605 59.5059 36.9853C65.9307 43.41 65.9307 53.8243 59.5059 60.249C53.0812 66.6738 42.6669 66.6738 36.2422 60.249Z" fill="#FAFAFA"/>
<path d="M103.551 83.6893C112.636 83.6893 120 76.3248 120 67.2404C120 58.1559 112.636 50.7915 103.551 50.7915C94.4667 50.7915 87.1023 58.1559 87.1023 67.2404C87.1023 76.3248 94.4667 83.6893 103.551 83.6893Z" fill="#FAFAFA"/>
</g>
<defs>
<clipPath id="clip0_199_1893">
<rect width="120" height="84" fill="white" transform="translate(0 0.213379)"/>
</clipPath>
</defs>
</svg>
