<svg width="473" height="254" viewBox="0 0 473 254" fill="none" xmlns="http://www.w3.org/2000/svg">
<path d="M97.3641 114.993C101.247 107.874 93.9457 130.966 90.6568 138.378C84.4106 152.455 77.3534 166.627 68.8127 179.438" stroke="#181818" stroke-width="10.5808" stroke-linecap="round"/>
<path d="M6 142.729C49.6926 120.038 93.141 96.0301 138.786 77.3778C148.833 73.2725 162.049 66.8652 173.229 66.3198C191.9 65.4091 164.528 95.9534 164.165 96.412C140.626 126.206 114.154 153.912 87.8472 181.25C67.0059 202.909 45.091 223.535 24.4904 245.423C11.2793 259.46 52.117 218.524 66.3657 205.542" stroke="#181818" stroke-width="10.5808" stroke-linecap="round"/>
<path d="M155.283 147.623C156.367 144.215 160.143 141.746 162.67 139.42C165.102 137.183 169.912 130.914 173.229 130.311C174.113 130.15 172.037 131.656 171.417 132.305C167.297 136.614 163.338 141.062 159.452 145.584C157.818 147.485 143.488 161.74 155.011 160.494C168.916 158.991 180.718 146.094 190.542 137.562C197.63 131.405 218.745 112.784 211.389 118.619C207.738 121.514 201.168 128.67 201.917 133.665C203.54 144.49 240.244 119.102 244.744 115.9C244.853 115.822 257.108 106.102 252.086 112.002C247.689 117.167 242.511 121.814 239.441 127.955C235.142 136.552 251.724 129.884 254.08 128.952C266.067 124.204 276.294 116.313 287.027 109.373C288.576 108.372 304.396 97.1901 297.224 106.201C296.38 107.261 284.287 121.436 288.93 120.839C292.711 120.353 298.87 116.646 301.439 115.174C310.232 110.136 318.66 104.414 326.682 98.2249C336.996 90.2669 346.77 81.7616 355.958 72.574" stroke="#181818" stroke-width="10.5808" stroke-linecap="round"/>
<path d="M392.354 90.5828C388.723 83.5006 381.175 86.6052 375.224 89.9483C368.549 93.6977 357.723 102.04 353.289 108.529C352.285 109.999 350.898 113.542 352.655 113.832C356.317 114.437 359.95 112.01 363.169 110.161C393.47 92.7565 419.632 66.007 442.025 39.5529C446.615 34.1308 456.248 21.506 460.968 15.0804C463.027 12.2776 465.611 9.71561 466.86 6.46964C467.882 3.81157 463.029 10.6892 461.24 12.905C456.716 18.5093 446.99 30.8648 442.931 36.1993C430.879 52.0408 418.314 68.6467 411.117 87.4104C407.99 95.5625 401.88 114.615 416.465 115.962C427.142 116.947 438.821 110.783 448.641 107.714" stroke="#181818" stroke-width="10.5808" stroke-linecap="round"/>
<path d="M357.589 48.1014C357.589 44.9352 355.525 45.6541 352.695 45.6541C352.017 45.6541 344.382 44.9334 347.256 47.6482C349.415 49.6871 354.753 49.4903 356.773 47.2857C358.154 45.7795 357.259 43.8253 355.595 42.935C351.939 40.9782 347.931 43.8055 344.537 44.8384" stroke="#181818" stroke-width="10.5808" stroke-linecap="round"/>
</svg>
